<svg xmlns="http://www.w3.org/2000/svg" xmlns:xlink="http://www.w3.org/1999/xlink" version="1.1" viewBox="0 0.04 172 53.93">
<g id="surface1">
<path style=" stroke:none;fill-rule:nonzero;fill:rgb(100%,35.294118%,37.254902%);fill-opacity:1;" d="M 90.648438 13.585938 C 90.648438 15.527344 89.089844 17.09375 87.15625 17.09375 C 85.222656 17.09375 83.664062 15.527344 83.664062 13.585938 C 83.664062 11.640625 85.167969 10.078125 87.15625 10.078125 C 89.144531 10.128906 90.648438 11.695312 90.648438 13.585938 Z M 76.246094 20.65625 C 76.246094 20.980469 76.246094 21.519531 76.246094 21.519531 C 76.246094 21.519531 74.582031 19.363281 71.035156 19.363281 C 65.179688 19.363281 60.609375 23.84375 60.609375 30.050781 C 60.609375 36.203125 65.125 40.738281 71.035156 40.738281 C 74.636719 40.738281 76.246094 38.527344 76.246094 38.527344 L 76.246094 39.441406 C 76.246094 39.875 76.570312 40.199219 77 40.199219 L 81.351562 40.199219 L 81.351562 19.902344 C 81.351562 19.902344 77.375 19.902344 77 19.902344 C 76.570312 19.902344 76.246094 20.277344 76.246094 20.65625 Z M 76.246094 33.667969 C 75.441406 34.855469 73.828125 35.878906 71.894531 35.878906 C 68.457031 35.878906 65.824219 33.722656 65.824219 30.050781 C 65.824219 26.378906 68.457031 24.21875 71.894531 24.21875 C 73.777344 24.21875 75.496094 25.300781 76.246094 26.433594 Z M 84.574219 19.902344 L 89.734375 19.902344 L 89.734375 40.199219 L 84.574219 40.199219 Z M 161.628906 19.363281 C 158.082031 19.363281 156.417969 21.519531 156.417969 21.519531 L 156.417969 10.128906 L 151.257812 10.128906 L 151.257812 40.199219 C 151.257812 40.199219 155.234375 40.199219 155.613281 40.199219 C 156.042969 40.199219 156.363281 39.820312 156.363281 39.441406 L 156.363281 38.527344 C 156.363281 38.527344 158.03125 40.738281 161.574219 40.738281 C 167.433594 40.738281 172 36.203125 172 30.050781 C 172 23.894531 167.433594 19.363281 161.628906 19.363281 Z M 160.769531 35.828125 C 158.78125 35.828125 157.222656 34.800781 156.417969 33.613281 L 156.417969 26.378906 C 157.222656 25.300781 158.941406 24.164062 160.769531 24.164062 C 164.207031 24.164062 166.839844 26.324219 166.839844 29.996094 C 166.839844 33.667969 164.207031 35.828125 160.769531 35.828125 Z M 148.574219 28.160156 L 148.574219 40.253906 L 143.414062 40.253906 L 143.414062 28.753906 C 143.414062 25.40625 142.339844 24.058594 139.4375 24.058594 C 137.878906 24.058594 136.265625 24.867188 135.246094 26.054688 L 135.246094 40.199219 L 130.089844 40.199219 L 130.089844 19.902344 L 134.171875 19.902344 C 134.601562 19.902344 134.925781 20.277344 134.925781 20.65625 L 134.925781 21.519531 C 136.429688 19.957031 138.417969 19.363281 140.40625 19.363281 C 142.660156 19.363281 144.542969 20.007812 146.046875 21.304688 C 147.875 22.816406 148.574219 24.757812 148.574219 28.160156 Z M 117.566406 19.363281 C 114.023438 19.363281 112.355469 21.519531 112.355469 21.519531 L 112.355469 10.128906 L 107.199219 10.128906 L 107.199219 40.199219 C 107.199219 40.199219 111.175781 40.199219 111.550781 40.199219 C 111.980469 40.199219 112.300781 39.820312 112.300781 39.441406 L 112.300781 38.527344 C 112.300781 38.527344 113.96875 40.738281 117.515625 40.738281 C 123.371094 40.738281 127.9375 36.203125 127.9375 30.050781 C 127.992188 23.894531 123.425781 19.363281 117.566406 19.363281 Z M 116.707031 35.828125 C 114.71875 35.828125 113.164062 34.800781 112.355469 33.613281 L 112.355469 26.378906 C 113.164062 25.300781 114.882812 24.164062 116.707031 24.164062 C 120.148438 24.164062 122.78125 26.324219 122.78125 29.996094 C 122.78125 33.667969 120.148438 35.828125 116.707031 35.828125 Z M 102.738281 19.363281 C 104.296875 19.363281 105.101562 19.632812 105.101562 19.632812 L 105.101562 24.4375 C 105.101562 24.4375 100.804688 22.976562 98.117188 26.054688 L 98.117188 40.253906 L 92.957031 40.253906 L 92.957031 19.902344 C 92.957031 19.902344 96.933594 19.902344 97.3125 19.902344 C 97.742188 19.902344 98.0625 20.277344 98.0625 20.65625 L 98.0625 21.519531 C 99.03125 20.386719 101.125 19.363281 102.738281 19.363281 Z M 49.164062 38.363281 C 48.898438 37.714844 48.628906 37.015625 48.359375 36.421875 C 47.929688 35.449219 47.5 34.53125 47.125 33.667969 L 47.070312 33.613281 C 43.363281 25.515625 39.386719 17.308594 35.195312 9.210938 L 35.035156 8.886719 C 34.605469 8.078125 34.175781 7.214844 33.746094 6.351562 C 33.207031 5.378906 32.667969 4.355469 31.808594 3.382812 C 30.089844 1.222656 27.617188 0.0351562 24.984375 0.0351562 C 22.300781 0.0351562 19.882812 1.222656 18.109375 3.273438 C 17.300781 4.246094 16.710938 5.273438 16.171875 6.242188 C 15.742188 7.105469 15.3125 7.972656 14.882812 8.78125 L 14.722656 9.105469 C 10.585938 17.203125 6.554688 25.40625 2.847656 33.503906 L 2.792969 33.613281 C 2.417969 34.476562 1.988281 35.394531 1.558594 36.367188 C 1.289062 36.960938 1.019531 37.609375 0.753906 38.308594 C 0.0546875 40.308594 -0.160156 42.195312 0.109375 44.140625 C 0.699219 48.1875 3.386719 51.589844 7.09375 53.101562 C 8.488281 53.695312 9.941406 53.964844 11.445312 53.964844 C 11.875 53.964844 12.414062 53.910156 12.84375 53.855469 C 14.617188 53.640625 16.441406 53.046875 18.214844 52.019531 C 20.417969 50.78125 22.515625 49 24.878906 46.40625 C 27.242188 49 29.390625 50.78125 31.542969 52.019531 C 33.316406 53.046875 35.140625 53.640625 36.914062 53.855469 C 37.34375 53.910156 37.882812 53.964844 38.3125 53.964844 C 39.816406 53.964844 41.320312 53.695312 42.664062 53.101562 C 46.425781 51.589844 49.058594 48.132812 49.648438 44.140625 C 50.078125 42.25 49.863281 40.359375 49.164062 38.363281 Z M 24.933594 41.171875 C 22.03125 37.5 20.148438 34.042969 19.503906 31.128906 C 19.238281 29.886719 19.183594 28.808594 19.34375 27.835938 C 19.453125 26.972656 19.773438 26.21875 20.203125 25.570312 C 21.226562 24.113281 22.945312 23.195312 24.933594 23.195312 C 26.921875 23.195312 28.695312 24.058594 29.660156 25.570312 C 30.089844 26.21875 30.414062 26.972656 30.519531 27.835938 C 30.683594 28.808594 30.628906 29.941406 30.359375 31.128906 C 29.714844 33.992188 27.832031 37.445312 24.933594 41.171875 Z M 46.371094 43.707031 C 45.996094 46.515625 44.113281 48.945312 41.480469 50.023438 C 40.191406 50.5625 38.796875 50.726562 37.398438 50.5625 C 36.054688 50.402344 34.710938 49.96875 33.316406 49.160156 C 31.378906 48.082031 29.445312 46.40625 27.1875 43.921875 C 30.734375 39.550781 32.882812 35.554688 33.691406 31.992188 C 34.066406 30.320312 34.121094 28.808594 33.960938 27.40625 C 33.746094 26.054688 33.261719 24.8125 32.507812 23.734375 C 30.84375 21.304688 28.046875 19.902344 24.933594 19.902344 C 21.816406 19.902344 19.023438 21.359375 17.355469 23.734375 C 16.605469 24.8125 16.121094 26.054688 15.90625 27.40625 C 15.691406 28.808594 15.742188 30.375 16.171875 31.992188 C 16.980469 35.554688 19.183594 39.605469 22.675781 43.976562 C 20.472656 46.460938 18.484375 48.132812 16.550781 49.214844 C 15.152344 50.023438 13.808594 50.457031 12.464844 50.617188 C 11.015625 50.78125 9.617188 50.5625 8.382812 50.078125 C 5.75 49 3.867188 46.570312 3.492188 43.761719 C 3.332031 42.414062 3.4375 41.0625 3.976562 39.550781 C 4.136719 39.011719 4.40625 38.472656 4.675781 37.824219 C 5.050781 36.960938 5.480469 36.042969 5.910156 35.125 L 5.964844 35.015625 C 9.671875 26.972656 13.648438 18.765625 17.785156 10.777344 L 17.945312 10.453125 C 18.375 9.644531 18.804688 8.78125 19.238281 7.972656 C 19.667969 7.105469 20.148438 6.296875 20.742188 5.59375 C 21.871094 4.300781 23.375 3.597656 25.039062 3.597656 C 26.707031 3.597656 28.210938 4.300781 29.339844 5.59375 C 29.929688 6.296875 30.414062 7.105469 30.84375 7.972656 C 31.273438 8.78125 31.703125 9.644531 32.132812 10.453125 L 32.292969 10.777344 C 36.378906 18.820312 40.355469 27.027344 44.0625 35.070312 L 44.0625 35.125 C 44.492188 35.988281 44.867188 36.960938 45.296875 37.824219 C 45.566406 38.472656 45.835938 39.011719 45.996094 39.550781 C 46.425781 40.953125 46.585938 42.304688 46.371094 43.707031 Z M 46.371094 43.707031 "/>
</g>
</svg>