<svg xmlns="http://www.w3.org/2000/svg" xmlns:xlink="http://www.w3.org/1999/xlink" version="1.1" viewBox="0.11 0.07 177.79 53.85">
<g id="surface1">
<path style=" stroke:none;fill-rule:nonzero;fill:rgb(100%,60%,0%);fill-opacity:1;" d="M 110.402344 42.1875 C 100.070312 49.839844 85.097656 53.925781 72.203125 53.925781 C 54.125 53.925781 37.851562 47.203125 25.539062 36.027344 C 24.570312 35.148438 25.4375 33.949219 26.597656 34.632812 C 39.886719 42.402344 56.316406 47.078125 73.289062 47.078125 C 84.734375 47.078125 97.324219 44.699219 108.902344 39.757812 C 110.652344 39.011719 112.113281 40.910156 110.402344 42.1875 "/>
<path style=" stroke:none;fill-rule:nonzero;fill:rgb(100%,60%,0%);fill-opacity:1;" d="M 114.699219 37.246094 C 113.382812 35.550781 105.96875 36.445312 102.640625 36.84375 C 101.628906 36.96875 101.472656 36.082031 102.386719 35.441406 C 108.289062 31.265625 117.980469 32.472656 119.109375 33.871094 C 120.238281 35.277344 118.816406 45.042969 113.265625 49.699219 C 112.414062 50.417969 111.601562 50.035156 111.980469 49.085938 C 113.226562 45.960938 116.023438 38.949219 114.699219 37.246094 "/>
<path style=" stroke:none;fill-rule:nonzero;fill:rgb(13.333333%,12.156863%,12.156863%);fill-opacity:1;" d="M 102.875 5.953125 L 102.875 1.894531 C 102.875 1.277344 103.335938 0.867188 103.894531 0.867188 L 121.980469 0.867188 C 122.5625 0.867188 123.027344 1.285156 123.027344 1.894531 L 123.027344 5.371094 C 123.019531 5.953125 122.53125 6.714844 121.664062 7.921875 L 112.292969 21.371094 C 115.773438 21.285156 119.449219 21.804688 122.609375 23.59375 C 123.320312 24 123.511719 24.589844 123.566406 25.175781 L 123.566406 29.507812 C 123.566406 30.097656 122.917969 30.789062 122.234375 30.433594 C 116.671875 27.5 109.28125 27.179688 103.128906 30.464844 C 102.5 30.804688 101.84375 30.121094 101.84375 29.53125 L 101.84375 25.414062 C 101.84375 24.753906 101.851562 23.625 102.507812 22.625 L 113.367188 6.972656 L 103.917969 6.972656 C 103.335938 6.972656 102.875 6.558594 102.875 5.953125 "/>
<path style=" stroke:none;fill-rule:nonzero;fill:rgb(13.333333%,12.156863%,12.156863%);fill-opacity:1;" d="M 36.898438 31.289062 L 31.394531 31.289062 C 30.871094 31.25 30.453125 30.851562 30.414062 30.347656 L 30.414062 1.964844 C 30.414062 1.394531 30.886719 0.945312 31.472656 0.945312 L 36.605469 0.945312 C 37.136719 0.96875 37.5625 1.378906 37.601562 1.894531 L 37.601562 5.605469 L 37.703125 5.605469 C 39.042969 2.019531 41.558594 0.34375 44.945312 0.34375 C 48.390625 0.34375 50.542969 2.019531 52.089844 5.605469 C 53.421875 2.019531 56.445312 0.34375 59.691406 0.34375 C 61.996094 0.34375 64.519531 1.300781 66.058594 3.449219 C 67.800781 5.835938 67.445312 9.304688 67.445312 12.347656 L 67.4375 30.261719 C 67.4375 30.828125 66.964844 31.289062 66.375 31.289062 L 60.882812 31.289062 C 60.332031 31.25 59.890625 30.804688 59.890625 30.261719 L 59.890625 15.21875 C 59.890625 14.019531 60 11.03125 59.734375 9.898438 C 59.324219 7.992188 58.09375 7.453125 56.5 7.453125 C 55.171875 7.453125 53.777344 8.347656 53.210938 9.78125 C 52.648438 11.210938 52.703125 13.609375 52.703125 15.21875 L 52.703125 30.261719 C 52.703125 30.828125 52.230469 31.289062 51.640625 31.289062 L 46.148438 31.289062 C 45.589844 31.25 45.15625 30.804688 45.15625 30.261719 L 45.148438 15.21875 C 45.148438 12.050781 45.667969 7.394531 41.757812 7.394531 C 37.804688 7.394531 37.957031 11.933594 37.957031 15.21875 L 37.957031 30.261719 C 37.957031 30.828125 37.488281 31.289062 36.898438 31.289062 "/>
<path style=" stroke:none;fill-rule:nonzero;fill:rgb(13.333333%,12.156863%,12.156863%);fill-opacity:1;" d="M 138.597656 0.34375 C 146.761719 0.34375 151.179688 7.394531 151.179688 16.355469 C 151.179688 25.011719 146.296875 31.878906 138.597656 31.878906 C 130.578125 31.878906 126.214844 24.832031 126.214844 16.050781 C 126.214844 7.214844 130.632812 0.34375 138.597656 0.34375 M 138.644531 6.140625 C 134.585938 6.140625 134.332031 11.695312 134.332031 15.15625 C 134.332031 18.625 134.277344 26.03125 138.597656 26.03125 C 142.859375 26.03125 143.0625 20.054688 143.0625 16.414062 C 143.0625 14.019531 142.960938 11.15625 142.242188 8.886719 C 141.621094 6.910156 140.390625 6.140625 138.644531 6.140625 "/>
<path style=" stroke:none;fill-rule:nonzero;fill:rgb(13.333333%,12.156863%,12.156863%);fill-opacity:1;" d="M 161.765625 31.289062 L 156.289062 31.289062 C 155.738281 31.25 155.296875 30.804688 155.296875 30.261719 L 155.289062 1.871094 C 155.335938 1.347656 155.792969 0.945312 156.347656 0.945312 L 161.449219 0.945312 C 161.929688 0.96875 162.324219 1.292969 162.433594 1.738281 L 162.433594 6.078125 L 162.53125 6.078125 C 164.074219 2.195312 166.230469 0.34375 170.03125 0.34375 C 172.5 0.34375 174.90625 1.238281 176.457031 3.691406 C 177.894531 5.960938 177.894531 9.78125 177.894531 12.527344 L 177.894531 30.394531 C 177.832031 30.890625 177.375 31.289062 176.835938 31.289062 L 171.316406 31.289062 C 170.8125 31.25 170.394531 30.875 170.339844 30.394531 L 170.339844 14.976562 C 170.339844 11.875 170.699219 7.332031 166.898438 7.332031 C 165.558594 7.332031 164.328125 8.234375 163.71875 9.601562 C 162.941406 11.335938 162.84375 13.0625 162.84375 14.976562 L 162.84375 30.261719 C 162.835938 30.828125 162.355469 31.289062 161.765625 31.289062 "/>
<path style=" stroke:none;fill-rule:nonzero;fill:rgb(13.333333%,12.156863%,12.156863%);fill-opacity:1;" d="M 88.457031 17.730469 L 88.457031 16.53125 C 84.476562 16.53125 80.277344 17.386719 80.277344 22.101562 C 80.277344 24.488281 81.507812 26.109375 83.617188 26.109375 C 85.167969 26.109375 86.550781 25.152344 87.425781 23.59375 C 88.507812 21.683594 88.457031 19.886719 88.457031 17.730469 M 94.003906 31.210938 C 93.640625 31.539062 93.113281 31.5625 92.703125 31.34375 C 90.878906 29.820312 90.554688 29.109375 89.546875 27.65625 C 86.527344 30.75 84.390625 31.675781 80.476562 31.675781 C 75.847656 31.675781 72.242188 28.808594 72.242188 23.058594 C 72.242188 18.570312 74.664062 15.511719 78.109375 14.019531 C 81.097656 12.699219 85.265625 12.464844 88.457031 12.097656 L 88.457031 11.382812 C 88.457031 10.070312 88.554688 8.511719 87.789062 7.378906 C 87.117188 6.359375 85.832031 5.9375 84.703125 5.9375 C 82.605469 5.9375 80.730469 7.019531 80.277344 9.257812 C 80.183594 9.757812 79.820312 10.246094 79.324219 10.269531 L 73.984375 9.695312 C 73.535156 9.59375 73.039062 9.226562 73.164062 8.535156 C 74.394531 2.035156 80.238281 0.0742188 85.46875 0.0742188 C 88.144531 0.0742188 91.644531 0.789062 93.757812 2.828125 C 96.433594 5.339844 96.179688 8.691406 96.179688 12.339844 L 96.179688 20.957031 C 96.179688 23.550781 97.246094 24.683594 98.253906 26.085938 C 98.609375 26.582031 98.6875 27.179688 98.238281 27.554688 C 97.117188 28.496094 95.117188 30.246094 94.019531 31.226562 L 94.003906 31.210938 "/>
<path style=" stroke:none;fill-rule:nonzero;fill:rgb(13.333333%,12.156863%,12.156863%);fill-opacity:1;" d="M 16.320312 17.730469 L 16.320312 16.53125 C 12.34375 16.53125 8.140625 17.386719 8.140625 22.101562 C 8.140625 24.488281 9.371094 26.109375 11.484375 26.109375 C 13.03125 26.109375 14.417969 25.152344 15.292969 23.59375 C 16.375 21.683594 16.320312 19.886719 16.320312 17.730469 M 21.871094 31.210938 C 21.503906 31.539062 20.980469 31.5625 20.570312 31.34375 C 18.742188 29.820312 18.417969 29.109375 17.410156 27.65625 C 14.394531 30.75 12.257812 31.675781 8.339844 31.675781 C 3.714844 31.675781 0.109375 28.808594 0.109375 23.058594 C 0.109375 18.570312 2.53125 15.511719 5.972656 14.019531 C 8.960938 12.699219 13.132812 12.464844 16.320312 12.097656 L 16.320312 11.382812 C 16.320312 10.070312 16.421875 8.511719 15.65625 7.378906 C 14.980469 6.359375 13.695312 5.9375 12.566406 5.9375 C 10.46875 5.9375 8.597656 7.019531 8.140625 9.257812 C 8.046875 9.757812 7.683594 10.246094 7.1875 10.269531 L 1.847656 9.695312 C 1.398438 9.59375 0.90625 9.226562 1.027344 8.535156 C 2.257812 2.035156 8.101562 0.0742188 13.332031 0.0742188 C 16.011719 0.0742188 19.507812 0.789062 21.621094 2.828125 C 24.300781 5.339844 24.042969 8.691406 24.042969 12.339844 L 24.042969 20.957031 C 24.042969 23.550781 25.113281 24.683594 26.117188 26.085938 C 26.472656 26.582031 26.550781 27.179688 26.101562 27.554688 C 24.980469 28.496094 22.984375 30.246094 21.886719 31.226562 L 21.871094 31.210938 "/>
</g>
</svg>