<svg xmlns="http://www.w3.org/2000/svg" xmlns:xlink="http://www.w3.org/1999/xlink" width="px" height="44px" viewBox="0 0 44 44" version="1.1">
<g id="surface1">
<path style=" stroke:none;fill-rule:nonzero;fill:rgb(96.078431%,96.078431%,98.823529%);fill-opacity:1;" d="M 11 0 C 10.132812 0 9.429688 0.703125 9.429688 1.570312 L 9.429688 4.714844 L 12.570312 4.714844 L 12.570312 1.570312 C 12.570312 0.703125 11.867188 0 11 0 Z M 11 0 "/>
<path style=" stroke:none;fill-rule:nonzero;fill:rgb(96.078431%,96.078431%,98.823529%);fill-opacity:1;" d="M 33 0 C 32.132812 0 31.429688 0.703125 31.429688 1.570312 L 31.429688 4.714844 L 34.570312 4.714844 L 34.570312 1.570312 C 34.570312 0.703125 33.867188 0 33 0 Z M 33 0 "/>
<path style=" stroke:none;fill-rule:nonzero;fill:rgb(96.078431%,96.078431%,98.823529%);fill-opacity:1;" d="M 39.285156 4.714844 L 34.570312 4.714844 L 34.570312 11 C 34.570312 11.867188 33.867188 12.570312 33 12.570312 C 32.132812 12.570312 31.429688 11.867188 31.429688 11 L 31.429688 4.714844 L 12.570312 4.714844 L 12.570312 11 C 12.570312 11.867188 11.867188 12.570312 11 12.570312 C 10.132812 12.570312 9.429688 11.867188 9.429688 11 L 9.429688 4.714844 L 4.714844 4.714844 C 2.109375 4.714844 0 6.824219 0 9.429688 L 0 39.285156 C 0 41.890625 2.109375 44 4.714844 44 L 39.285156 44 C 41.890625 44 44 41.890625 44 39.285156 L 44 9.429688 C 44 6.824219 41.890625 4.714844 39.285156 4.714844 Z M 40.855469 39.285156 C 40.855469 40.152344 40.152344 40.855469 39.285156 40.855469 L 4.714844 40.855469 C 3.847656 40.855469 3.144531 40.152344 3.144531 39.285156 L 3.144531 18.855469 L 40.855469 18.855469 Z M 40.855469 39.285156 "/>
<path style=" stroke:none;fill-rule:nonzero;fill:rgb(96.078431%,96.078431%,98.823529%);fill-opacity:1;" d="M 12.570312 22 L 9.429688 22 C 8.5625 22 7.855469 22.703125 7.855469 23.570312 C 7.855469 24.4375 8.5625 25.144531 9.429688 25.144531 L 12.570312 25.144531 C 13.4375 25.144531 14.144531 24.4375 14.144531 23.570312 C 14.144531 22.703125 13.4375 22 12.570312 22 Z M 12.570312 22 "/>
<path style=" stroke:none;fill-rule:nonzero;fill:rgb(96.078431%,96.078431%,98.823529%);fill-opacity:1;" d="M 23.570312 22 L 20.429688 22 C 19.5625 22 18.855469 22.703125 18.855469 23.570312 C 18.855469 24.4375 19.5625 25.144531 20.429688 25.144531 L 23.570312 25.144531 C 24.4375 25.144531 25.144531 24.4375 25.144531 23.570312 C 25.144531 22.703125 24.4375 22 23.570312 22 Z M 23.570312 22 "/>
<path style=" stroke:none;fill-rule:nonzero;fill:rgb(96.078431%,96.078431%,98.823529%);fill-opacity:1;" d="M 34.570312 22 L 31.429688 22 C 30.5625 22 29.855469 22.703125 29.855469 23.570312 C 29.855469 24.4375 30.5625 25.144531 31.429688 25.144531 L 34.570312 25.144531 C 35.4375 25.144531 36.144531 24.4375 36.144531 23.570312 C 36.144531 22.703125 35.4375 22 34.570312 22 Z M 34.570312 22 "/>
<path style=" stroke:none;fill-rule:nonzero;fill:rgb(96.078431%,96.078431%,98.823529%);fill-opacity:1;" d="M 12.570312 28.285156 L 9.429688 28.285156 C 8.5625 28.285156 7.855469 28.988281 7.855469 29.855469 C 7.855469 30.726562 8.5625 31.429688 9.429688 31.429688 L 12.570312 31.429688 C 13.4375 31.429688 14.144531 30.726562 14.144531 29.855469 C 14.144531 28.988281 13.4375 28.285156 12.570312 28.285156 Z M 12.570312 28.285156 "/>
<path style=" stroke:none;fill-rule:nonzero;fill:rgb(96.078431%,96.078431%,98.823529%);fill-opacity:1;" d="M 23.570312 28.285156 L 20.429688 28.285156 C 19.5625 28.285156 18.855469 28.988281 18.855469 29.855469 C 18.855469 30.726562 19.5625 31.429688 20.429688 31.429688 L 23.570312 31.429688 C 24.4375 31.429688 25.144531 30.726562 25.144531 29.855469 C 25.144531 28.988281 24.4375 28.285156 23.570312 28.285156 Z M 23.570312 28.285156 "/>
<path style=" stroke:none;fill-rule:nonzero;fill:rgb(96.078431%,96.078431%,98.823529%);fill-opacity:1;" d="M 34.570312 28.285156 L 31.429688 28.285156 C 30.5625 28.285156 29.855469 28.988281 29.855469 29.855469 C 29.855469 30.726562 30.5625 31.429688 31.429688 31.429688 L 34.570312 31.429688 C 35.4375 31.429688 36.144531 30.726562 36.144531 29.855469 C 36.144531 28.988281 35.4375 28.285156 34.570312 28.285156 Z M 34.570312 28.285156 "/>
<path style=" stroke:none;fill-rule:nonzero;fill:rgb(96.078431%,96.078431%,98.823529%);fill-opacity:1;" d="M 12.570312 34.570312 L 9.429688 34.570312 C 8.5625 34.570312 7.855469 35.273438 7.855469 36.144531 C 7.855469 37.011719 8.5625 37.714844 9.429688 37.714844 L 12.570312 37.714844 C 13.4375 37.714844 14.144531 37.011719 14.144531 36.144531 C 14.144531 35.273438 13.4375 34.570312 12.570312 34.570312 Z M 12.570312 34.570312 "/>
<path style=" stroke:none;fill-rule:nonzero;fill:rgb(96.078431%,96.078431%,98.823529%);fill-opacity:1;" d="M 23.570312 34.570312 L 20.429688 34.570312 C 19.5625 34.570312 18.855469 35.273438 18.855469 36.144531 C 18.855469 37.011719 19.5625 37.714844 20.429688 37.714844 L 23.570312 37.714844 C 24.4375 37.714844 25.144531 37.011719 25.144531 36.144531 C 25.144531 35.273438 24.4375 34.570312 23.570312 34.570312 Z M 23.570312 34.570312 "/>
<path style=" stroke:none;fill-rule:nonzero;fill:rgb(96.078431%,96.078431%,98.823529%);fill-opacity:1;" d="M 34.570312 34.570312 L 31.429688 34.570312 C 30.5625 34.570312 29.855469 35.273438 29.855469 36.144531 C 29.855469 37.011719 30.5625 37.714844 31.429688 37.714844 L 34.570312 37.714844 C 35.4375 37.714844 36.144531 37.011719 36.144531 36.144531 C 36.144531 35.273438 35.4375 34.570312 34.570312 34.570312 Z M 34.570312 34.570312 "/>
</g>
</svg>
