<svg xmlns="http://www.w3.org/2000/svg" xmlns:xlink="http://www.w3.org/1999/xlink" version="1.1" viewBox="8.28 18.16 91.43 17.68">
<g id="surface1">
<path style=" stroke:none;fill-rule:nonzero;fill:rgb(23.529412%,35.294118%,60%);fill-opacity:1;" d="M 15.445312 20.921875 C 14.363281 20.921875 14.054688 21.402344 14.054688 22.457031 L 14.054688 24.203125 L 16.933594 24.203125 L 16.648438 27.03125 L 14.054688 27.03125 L 14.054688 35.597656 L 10.613281 35.597656 L 10.613281 27.03125 L 8.28125 27.03125 L 8.28125 24.203125 L 10.601562 24.203125 L 10.601562 22.507812 C 10.601562 19.65625 11.746094 18.15625 14.953125 18.15625 C 15.640625 18.15625 16.464844 18.207031 16.957031 18.28125 L 16.957031 20.933594 M 17.152344 30.25 C 17.152344 33.433594 18.664062 35.820312 21.8125 35.820312 C 23.53125 35.820312 24.613281 34.957031 25.09375 33.867188 L 25.09375 35.585938 L 28.402344 35.585938 L 28.402344 24.203125 L 25.09375 24.203125 L 25.09375 25.949219 C 24.589844 24.855469 23.546875 23.957031 21.8125 23.957031 C 18.664062 23.957031 17.152344 26.355469 17.152344 29.523438 M 20.609375 29.476562 C 20.609375 27.777344 21.234375 26.648438 22.832031 26.648438 C 24.246094 26.648438 24.960938 27.679688 24.960938 29.304688 L 24.960938 30.445312 C 24.960938 32.070312 24.246094 33.101562 22.832031 33.101562 C 21.234375 33.101562 20.609375 31.984375 20.609375 30.277344 Z M 35.578125 23.957031 C 31.546875 23.957031 29.699219 26.132812 29.699219 29.625 L 29.699219 30.152344 C 29.699219 33.640625 31.542969 35.816406 35.585938 35.816406 C 36.9375 35.816406 38.191406 35.535156 38.894531 35.054688 L 38.132812 32.609375 C 37.414062 32.949219 36.628906 33.128906 35.832031 33.136719 C 33.964844 33.136719 33.152344 32.054688 33.152344 30.226562 L 33.152344 29.5625 C 33.152344 27.71875 33.964844 26.648438 35.832031 26.648438 C 36.734375 26.648438 37.605469 26.90625 38.132812 27.175781 L 38.894531 24.730469 C 38.195312 24.238281 36.929688 23.957031 35.585938 23.957031 M 39.335938 30.324219 C 39.335938 33.667969 40.960938 35.839844 45.308594 35.839844 C 46.957031 35.839844 48.824219 35.484375 49.734375 35.003906 L 49.109375 32.632812 C 48.097656 33.0625 46.734375 33.320312 45.445312 33.320312 C 43.527344 33.320312 42.839844 32.632812 42.765625 31.070312 L 50.015625 31.070312 L 50.015625 29.253906 C 50.015625 26.101562 48.46875 23.941406 44.929688 23.941406 C 41.164062 23.941406 39.335938 26.070312 39.335938 29.300781 L 39.335938 30.328125 M 42.777344 28.84375 C 42.777344 27.308594 43.378906 26.335938 44.9375 26.335938 C 46.449219 26.335938 46.941406 27.320312 46.941406 28.5625 L 46.941406 28.84375 L 42.777344 28.84375 M 62.800781 29.53125 C 62.800781 26.347656 61.261719 23.964844 58.117188 23.964844 C 56.519531 23.964844 55.414062 24.773438 54.910156 25.78125 L 54.910156 18.175781 L 51.46875 18.480469 L 51.46875 35.582031 L 54.726562 35.582031 L 54.726562 33.859375 C 55.207031 34.953125 56.398438 35.828125 58.117188 35.828125 C 61.269531 35.828125 62.800781 33.429688 62.800781 30.257812 M 59.359375 30.308594 C 59.359375 31.90625 58.734375 33.109375 57.085938 33.109375 C 55.671875 33.109375 54.910156 32.101562 54.910156 30.480469 L 54.910156 29.289062 C 54.910156 27.664062 55.671875 26.65625 57.085938 26.65625 C 58.734375 26.65625 59.359375 27.847656 59.359375 29.460938 Z M 63.957031 30.171875 C 63.957031 33.453125 65.824219 35.816406 69.625 35.816406 C 73.421875 35.816406 75.289062 33.441406 75.289062 30.171875 L 75.289062 29.59375 C 75.289062 26.3125 73.421875 23.953125 69.625 23.953125 C 65.824219 23.953125 63.957031 26.328125 63.957031 29.59375 L 63.957031 30.171875 M 71.847656 30.40625 C 71.847656 31.917969 71.222656 33.109375 69.625 33.109375 C 68.023438 33.109375 67.398438 31.917969 67.398438 30.40625 L 67.398438 29.351562 C 67.398438 27.839844 68.023438 26.648438 69.625 26.648438 C 71.222656 26.648438 71.847656 27.839844 71.847656 29.351562 Z M 76.433594 30.171875 C 76.433594 33.453125 78.300781 35.816406 82.097656 35.816406 C 85.898438 35.816406 87.765625 33.441406 87.765625 30.171875 L 87.765625 29.59375 C 87.765625 26.3125 85.898438 23.953125 82.097656 23.953125 C 78.300781 23.953125 76.433594 26.328125 76.433594 29.59375 L 76.433594 30.171875 M 84.335938 30.40625 C 84.335938 31.917969 83.707031 33.109375 82.109375 33.109375 C 80.511719 33.109375 79.882812 31.941406 79.882812 30.410156 L 79.882812 29.355469 C 79.882812 27.84375 80.511719 26.652344 82.109375 26.652344 C 83.707031 26.652344 84.332031 27.84375 84.332031 29.355469 Z M 92.507812 18.164062 L 89.066406 18.472656 L 89.066406 35.550781 L 92.507812 35.550781 L 92.507812 29.984375 L 96.046875 35.550781 L 99.710938 35.550781 L 96 29.789062 L 99.5625 24.175781 L 95.902344 24.175781 L 92.507812 29.605469 "/>
</g>
</svg>