<svg xmlns="http://www.w3.org/2000/svg" xmlns:xlink="http://www.w3.org/1999/xlink" width="px" height="44px" viewBox="0 0 32 44" version="1.1">
<g id="surface1">
<path style=" stroke:none;fill-rule:nonzero;fill:rgb(100%,100%,100%);fill-opacity:1;" d="M 24 22 L 8 22 L 8 27.5 L 24 27.5 Z M 31.417969 9.023438 L 23.257812 0.601562 C 22.882812 0.214844 22.375 0 21.839844 0 L 21.332031 0 L 21.332031 11 L 32 11 L 32 10.476562 C 32 9.933594 31.792969 9.410156 31.417969 9.023438 Z M 18.667969 11.6875 L 18.667969 0 L 2 0 C 0.890625 0 0 0.917969 0 2.0625 L 0 41.9375 C 0 43.082031 0.890625 44 2 44 L 30 44 C 31.109375 44 32 43.082031 32 41.9375 L 32 13.75 L 20.667969 13.75 C 19.566406 13.75 18.667969 12.820312 18.667969 11.6875 Z M 5.332031 6.1875 C 5.332031 5.808594 5.632812 5.5 6 5.5 L 12.667969 5.5 C 13.035156 5.5 13.332031 5.808594 13.332031 6.1875 L 13.332031 7.5625 C 13.332031 7.941406 13.035156 8.25 12.667969 8.25 L 6 8.25 C 5.632812 8.25 5.332031 7.941406 5.332031 7.5625 Z M 5.332031 11.6875 C 5.332031 11.308594 5.632812 11 6 11 L 12.667969 11 C 13.035156 11 13.332031 11.308594 13.332031 11.6875 L 13.332031 13.0625 C 13.332031 13.441406 13.035156 13.75 12.667969 13.75 L 6 13.75 C 5.632812 13.75 5.332031 13.441406 5.332031 13.0625 Z M 26.667969 37.8125 C 26.667969 38.191406 26.367188 38.5 26 38.5 L 19.332031 38.5 C 18.964844 38.5 18.667969 38.191406 18.667969 37.8125 L 18.667969 36.4375 C 18.667969 36.058594 18.964844 35.75 19.332031 35.75 L 26 35.75 C 26.367188 35.75 26.667969 36.058594 26.667969 36.4375 Z M 26.667969 20.625 L 26.667969 28.875 C 26.667969 29.632812 26.070312 30.25 25.332031 30.25 L 6.667969 30.25 C 5.929688 30.25 5.332031 29.632812 5.332031 28.875 L 5.332031 20.625 C 5.332031 19.867188 5.929688 19.25 6.667969 19.25 L 25.332031 19.25 C 26.070312 19.25 26.667969 19.867188 26.667969 20.625 Z M 26.667969 20.625 "/>
</g>
</svg>
