<svg xmlns="http://www.w3.org/2000/svg" xmlns:xlink="http://www.w3.org/1999/xlink" version="1.1" viewBox="0.21 0.28 157.62 52.1">
<g id="surface1">
<path style=" stroke:none;fill-rule:nonzero;fill:rgb(91.764706%,26.27451%,20.784314%);fill-opacity:1;" d="M 67.664062 27.691406 C 67.664062 35.1875 61.824219 40.710938 54.65625 40.710938 C 47.488281 40.710938 41.648438 35.1875 41.648438 27.691406 C 41.648438 20.144531 47.488281 14.675781 54.65625 14.675781 C 61.824219 14.675781 67.664062 20.144531 67.664062 27.691406 Z M 61.96875 27.691406 C 61.96875 23.007812 58.585938 19.804688 54.65625 19.804688 C 50.726562 19.804688 47.34375 23.007812 47.34375 27.691406 C 47.34375 32.328125 50.726562 35.582031 54.65625 35.582031 C 58.585938 35.582031 61.96875 32.324219 61.96875 27.691406 Z M 61.96875 27.691406 "/>
<path style=" stroke:none;fill-rule:nonzero;fill:rgb(98.431373%,73.72549%,1.960784%);fill-opacity:1;" d="M 95.722656 27.691406 C 95.722656 35.1875 89.882812 40.710938 82.714844 40.710938 C 75.546875 40.710938 69.707031 35.1875 69.707031 27.691406 C 69.707031 20.148438 75.546875 14.675781 82.714844 14.675781 C 89.882812 14.675781 95.722656 20.144531 95.722656 27.691406 Z M 90.027344 27.691406 C 90.027344 23.007812 86.644531 19.804688 82.714844 19.804688 C 78.785156 19.804688 75.402344 23.007812 75.402344 27.691406 C 75.402344 32.328125 78.785156 35.582031 82.714844 35.582031 C 86.644531 35.582031 90.027344 32.324219 90.027344 27.691406 Z M 90.027344 27.691406 "/>
<path style=" stroke:none;fill-rule:nonzero;fill:rgb(25.882353%,52.156863%,95.686275%);fill-opacity:1;" d="M 122.609375 15.460938 L 122.609375 38.832031 C 122.609375 48.449219 116.964844 52.375 110.289062 52.375 C 104.003906 52.375 100.222656 48.152344 98.796875 44.703125 L 103.753906 42.628906 C 104.636719 44.75 106.800781 47.25 110.28125 47.25 C 114.554688 47.25 117.203125 44.601562 117.203125 39.621094 L 117.203125 37.746094 L 117.003906 37.746094 C 115.730469 39.324219 113.277344 40.707031 110.175781 40.707031 C 103.695312 40.707031 97.753906 35.035156 97.753906 27.738281 C 97.753906 20.390625 103.695312 14.675781 110.175781 14.675781 C 113.269531 14.675781 115.726562 16.054688 117.003906 17.585938 L 117.203125 17.585938 L 117.203125 15.464844 L 122.609375 15.464844 Z M 117.605469 27.738281 C 117.605469 23.15625 114.5625 19.804688 110.6875 19.804688 C 106.757812 19.804688 103.46875 23.15625 103.46875 27.738281 C 103.46875 32.277344 106.757812 35.582031 110.6875 35.582031 C 114.5625 35.582031 117.605469 32.277344 117.605469 27.738281 Z M 117.605469 27.738281 "/>
<path style=" stroke:none;fill-rule:nonzero;fill:rgb(20.392157%,65.882353%,32.54902%);fill-opacity:1;" d="M 131.527344 1.761719 L 131.527344 39.914062 L 125.972656 39.914062 L 125.972656 1.761719 Z M 131.527344 1.761719 "/>
<path style=" stroke:none;fill-rule:nonzero;fill:rgb(91.764706%,26.27451%,20.784314%);fill-opacity:1;" d="M 153.167969 31.976562 L 157.585938 34.9375 C 156.160156 37.054688 152.722656 40.707031 146.78125 40.707031 C 139.417969 40.707031 133.917969 34.988281 133.917969 27.6875 C 133.917969 19.945312 139.464844 14.667969 146.144531 14.667969 C 152.875 14.667969 156.164062 20.042969 157.242188 22.949219 L 157.832031 24.429688 L 140.5 31.636719 C 141.824219 34.25 143.890625 35.582031 146.78125 35.582031 C 149.683594 35.582031 151.691406 34.148438 153.167969 31.976562 Z M 139.5625 27.292969 L 151.148438 22.460938 C 150.511719 20.835938 148.59375 19.703125 146.339844 19.703125 C 143.445312 19.703125 139.417969 22.269531 139.5625 27.292969 Z M 139.5625 27.292969 "/>
<path style=" stroke:none;fill-rule:nonzero;fill:rgb(25.882353%,52.156863%,95.686275%);fill-opacity:1;" d="M 20.628906 24.304688 L 20.628906 18.78125 L 39.164062 18.78125 C 39.347656 19.746094 39.441406 20.882812 39.441406 22.117188 C 39.441406 26.261719 38.3125 31.382812 34.675781 35.035156 C 31.140625 38.734375 26.621094 40.707031 20.636719 40.707031 C 9.539062 40.707031 0.210938 31.632812 0.210938 20.492188 C 0.210938 9.351562 9.539062 0.277344 20.636719 0.277344 C 26.773438 0.277344 31.144531 2.695312 34.429688 5.847656 L 30.550781 9.742188 C 28.191406 7.523438 25 5.800781 20.628906 5.800781 C 12.527344 5.800781 6.191406 12.355469 6.191406 20.492188 C 6.191406 28.625 12.527344 35.183594 20.628906 35.183594 C 25.882812 35.183594 28.878906 33.0625 30.792969 31.136719 C 32.347656 29.578125 33.371094 27.347656 33.777344 24.300781 Z M 20.628906 24.304688 "/>
</g>
</svg>