<svg xmlns="http://www.w3.org/2000/svg" xmlns:xlink="http://www.w3.org/1999/xlink" version="1.1" viewBox="0 0 152.01 54.03">
<g id="surface1">
<path style=" stroke:none;fill-rule:nonzero;fill:rgb(0%,69.411765%,30.980392%);fill-opacity:1;" d="M 22.851562 53.960938 C 16.695312 53.414062 11.3125 50.972656 7.21875 46.882812 C 3.355469 43.015625 0.984375 38.109375 0.179688 32.3125 C -0.0195312 30.890625 -0.0625 27.542969 0.0976562 26.039062 C 0.613281 21.164062 2.386719 16.804688 5.382812 13.054688 C 6.191406 12.042969 7.871094 10.324219 8.835938 9.523438 C 13.957031 5.277344 20.421875 3.207031 27.417969 3.574219 C 30.71875 3.75 32.984375 4.15625 35.523438 5.027344 C 37.28125 5.628906 39.8125 6.910156 40.59375 7.589844 L 40.789062 7.761719 L 40.765625 9.679688 L 40.746094 11.601562 L 39.910156 11.085938 C 36.078125 8.726562 31.21875 7.480469 25.878906 7.480469 C 21.355469 7.484375 17.179688 8.699219 13.625 11.042969 C 9.964844 13.453125 7.207031 16.859375 5.59375 20.960938 C 3.410156 26.511719 3.75 33.296875 6.484375 38.773438 C 9.597656 45.015625 15.339844 49.03125 22.464844 49.953125 C 24.5625 50.222656 27.652344 50.101562 29.847656 49.660156 C 37.035156 48.210938 41.542969 43.292969 42.503906 35.855469 C 42.605469 35.082031 42.640625 34.144531 42.644531 32.117188 L 42.652344 29.410156 L 34.164062 29.390625 L 25.671875 29.367188 L 25.671875 25.550781 L 46.429688 25.550781 L 46.429688 28.992188 C 46.429688 32.871094 46.34375 34.90625 46.117188 36.527344 C 45.425781 41.433594 43.601562 45.339844 40.589844 48.355469 C 37.535156 51.410156 33.628906 53.203125 28.617188 53.847656 C 27.445312 53.996094 24.023438 54.066406 22.851562 53.960938 Z M 119.683594 8.367188 L 119.683594 0 L 123.578125 0 L 123.578125 14.144531 L 123.242188 14.292969 C 122.546875 14.605469 121.558594 15.28125 119.78125 16.65625 C 119.703125 16.71875 119.683594 15.046875 119.683594 8.367188 Z M 113.796875 11.398438 L 113.796875 0 L 117.695312 0 L 117.695312 18.242188 L 117.085938 18.890625 C 116.460938 19.554688 115.339844 20.875 114.4375 22.007812 C 114.15625 22.355469 113.898438 22.679688 113.863281 22.71875 C 113.828125 22.761719 113.796875 17.667969 113.796875 11.398438 Z M 113.796875 11.398438 "/>
<path style=" stroke:none;fill-rule:nonzero;fill:rgb(0%,69.411765%,30.980392%);fill-opacity:1;" d="M 23.882812 48.027344 C 18.988281 47.640625 14.867188 45.75 11.625 42.402344 C 10.671875 41.417969 10.121094 40.734375 9.390625 39.625 C 6.675781 35.503906 5.621094 30.121094 6.546875 25.117188 C 7.730469 18.703125 12.15625 13.375 18.351562 10.90625 C 19.929688 10.277344 21.875 9.8125 23.722656 9.625 C 24.917969 9.503906 28.140625 9.570312 29.410156 9.746094 C 33.503906 10.304688 37.160156 11.574219 40.089844 13.445312 L 40.785156 13.886719 L 40.785156 15.777344 C 40.785156 17.496094 40.773438 17.671875 40.644531 17.738281 C 40.535156 17.796875 40.289062 17.675781 39.511719 17.183594 C 36.445312 15.238281 33.179688 14.101562 29.332031 13.640625 C 27.867188 13.464844 24.699219 13.441406 23.605469 13.597656 C 16.574219 14.613281 11.566406 19.671875 10.679688 26.664062 C 10.433594 28.566406 10.601562 31.25 11.074219 33.109375 C 12.132812 37.265625 14.6875 40.644531 18.109375 42.410156 C 20.429688 43.609375 22.472656 44.09375 25.195312 44.09375 C 29.011719 44.09375 32.082031 43.007812 34.183594 40.914062 C 35.550781 39.554688 36.347656 37.910156 36.527344 36.074219 L 36.585938 35.5 L 25.671875 35.5 L 25.671875 31.4375 L 40.625 31.4375 L 40.625 33.0625 C 40.625 35.566406 40.425781 37.054688 39.863281 38.734375 C 38.726562 42.140625 36.308594 44.847656 32.992188 46.433594 C 30.832031 47.460938 28.535156 47.964844 25.683594 48.027344 C 24.914062 48.042969 24.101562 48.042969 23.882812 48.027344 Z M 132.144531 48.070312 C 129.054688 47.792969 126.332031 46.429688 124.007812 43.988281 C 122.339844 42.238281 121.160156 40.148438 120.648438 38.046875 C 120.347656 36.824219 120.253906 37.0625 121.953125 34.71875 C 122.78125 33.578125 123.484375 32.640625 123.511719 32.636719 C 123.539062 32.632812 123.585938 33.019531 123.617188 33.488281 C 123.6875 34.679688 123.796875 35.40625 124.035156 36.332031 C 125.09375 40.445312 128.078125 43.414062 131.796875 44.066406 C 132.785156 44.238281 134.480469 44.175781 135.429688 43.929688 C 138.855469 43.046875 141.132812 40.457031 142.003906 36.453125 C 142.214844 35.488281 142.214844 32.648438 142.003906 31.695312 C 141.578125 29.757812 140.75 28.117188 139.546875 26.851562 C 137.828125 25.042969 135.574219 24.117188 132.886719 24.117188 C 129.433594 24.117188 126.925781 25.515625 123.613281 29.292969 C 120.375 32.980469 115 39.820312 112.296875 43.683594 L 111.332031 45.066406 L 111.332031 38.640625 L 112.707031 36.773438 C 113.460938 35.742188 114.785156 33.988281 115.648438 32.871094 C 116.511719 31.753906 117.710938 30.199219 118.3125 29.410156 C 121.070312 25.789062 122.851562 23.972656 125.113281 22.472656 C 129.78125 19.371094 135.921875 19.292969 140.378906 22.277344 C 144.921875 25.320312 147.105469 31.277344 145.886719 37.300781 C 144.90625 42.160156 141.796875 45.90625 137.492188 47.421875 C 136.5625 47.75 135.492188 47.96875 134.355469 48.070312 C 133.308594 48.160156 133.167969 48.160156 132.144531 48.070312 Z M 99.558594 42.890625 C 99.558594 34.234375 99.542969 32.738281 99.4375 32.019531 C 99.046875 29.398438 97.835938 27.210938 96.015625 25.84375 C 94.835938 24.957031 93.511719 24.40625 91.9375 24.148438 C 90.808594 23.960938 89.125 24.035156 88.066406 24.3125 C 84.53125 25.246094 81.988281 28.128906 81.222656 32.074219 C 81 33.203125 81.019531 35.324219 81.257812 36.453125 C 82.046875 40.167969 84.398438 42.847656 87.710938 43.800781 C 90.621094 44.640625 94.636719 44.011719 97.117188 42.328125 L 97.574219 42.015625 L 97.554688 44.070312 L 97.53125 46.121094 L 96.738281 46.535156 C 94.726562 47.589844 91.570312 48.261719 89.339844 48.113281 C 85.070312 47.828125 81.632812 45.886719 79.347656 42.472656 C 76.914062 38.835938 76.289062 33.558594 77.769531 29.105469 C 79.726562 23.226562 85.210938 19.636719 91.46875 20.136719 C 94.859375 20.410156 97.40625 21.550781 99.644531 23.792969 C 101.710938 25.867188 102.816406 28.105469 103.347656 31.28125 C 103.476562 32.042969 103.492188 33.039062 103.515625 42.523438 L 103.542969 52.929688 L 99.558594 52.929688 Z M 54.941406 42.640625 C 54.945312 32.089844 54.976562 30.675781 55.257812 29.300781 C 55.976562 25.765625 58.070312 22.957031 61.136719 21.414062 C 61.859375 21.050781 63.367188 20.566406 64.246094 20.421875 C 66.902344 19.972656 69.660156 20.378906 71.621094 21.5 L 72.035156 21.738281 L 71.707031 22.269531 C 71.527344 22.5625 71.132812 23.3125 70.828125 23.9375 C 70.527344 24.5625 70.273438 25.070312 70.265625 25.070312 C 70.257812 25.070312 69.910156 24.949219 69.496094 24.800781 C 67.71875 24.167969 66.09375 24.0625 64.433594 24.480469 C 62.875 24.871094 61.460938 25.792969 60.542969 27.003906 C 60.03125 27.683594 59.4375 28.933594 59.175781 29.886719 L 58.960938 30.683594 L 58.9375 41.804688 L 58.914062 52.929688 L 54.941406 52.929688 Z M 54.941406 42.640625 "/>
<path style=" stroke:none;fill-rule:nonzero;fill:rgb(0%,69.411765%,30.980392%);fill-opacity:1;" d="M 49.136719 41.964844 C 49.136719 31.007812 49.15625 30.121094 49.421875 28.492188 C 50.246094 23.472656 52.871094 19.378906 56.789062 16.996094 C 60.515625 14.734375 65.457031 13.960938 70.210938 14.894531 C 71.90625 15.226562 74.011719 16.046875 75.308594 16.878906 L 75.835938 17.214844 L 74.902344 18.140625 C 74.390625 18.648438 73.8125 19.253906 73.613281 19.488281 L 73.253906 19.910156 L 72.789062 19.675781 C 71.226562 18.886719 68.582031 18.304688 66.546875 18.304688 C 60.148438 18.304688 55.15625 22.023438 53.59375 27.953125 C 53.058594 29.992188 53.082031 29.359375 53.054688 41.726562 L 53.027344 52.929688 L 49.136719 52.929688 Z M 131.53125 53.992188 C 125.5625 53.449219 120.617188 50.582031 117.578125 45.902344 C 117.097656 45.164062 116.265625 43.484375 116.101562 42.925781 L 116.003906 42.59375 L 117.386719 40.714844 L 118.769531 38.832031 L 118.835938 39.09375 C 119.734375 42.460938 121.695312 45.320312 124.460938 47.296875 C 125.320312 47.910156 126.882812 48.738281 127.917969 49.132812 C 130.519531 50.121094 133.398438 50.359375 136.203125 49.816406 C 138.027344 49.464844 140.195312 48.535156 141.714844 47.457031 C 142.648438 46.792969 144.378906 45.074219 145.007812 44.1875 C 146.546875 42.015625 147.558594 39.433594 147.96875 36.640625 C 148.15625 35.359375 148.15625 32.78125 147.972656 31.515625 C 147.324219 27.09375 145.3125 23.539062 142.070312 21.078125 C 139.34375 19.007812 135.496094 17.933594 131.828125 18.214844 C 126.277344 18.644531 122.449219 21.171875 116.945312 28.046875 C 116.382812 28.753906 114.898438 30.691406 113.652344 32.355469 C 112.40625 34.019531 111.375 35.394531 111.359375 35.410156 C 111.34375 35.429688 111.332031 34.140625 111.332031 32.542969 L 111.332031 29.644531 L 112.664062 27.777344 C 115.492188 23.816406 116.714844 22.300781 118.644531 20.375 C 120.65625 18.371094 122.265625 17.183594 124.414062 16.117188 C 126.21875 15.21875 127.957031 14.683594 130.101562 14.351562 C 131.386719 14.152344 134.539062 14.152344 135.828125 14.351562 C 140.210938 15.027344 143.699219 16.804688 146.644531 19.867188 C 149.527344 22.863281 151.253906 26.582031 151.90625 31.199219 C 152.050781 32.214844 152.050781 35.914062 151.90625 36.929688 C 151.441406 40.234375 150.371094 43.199219 148.757812 45.644531 C 145.765625 50.191406 141.402344 53 136.027344 53.84375 C 135.257812 53.964844 132.300781 54.0625 131.53125 53.992188 Z M 88.347656 53.953125 C 79.726562 53.164062 73.074219 47.101562 71.414062 38.523438 C 71.097656 36.898438 71.046875 36.289062 71.046875 34.144531 C 71.046875 31.519531 71.222656 30.164062 71.847656 28.015625 C 73.476562 22.390625 77.617188 17.726562 82.898438 15.570312 C 85.417969 14.542969 87.609375 14.128906 90.492188 14.136719 C 93.289062 14.140625 95.351562 14.503906 97.691406 15.402344 C 100.1875 16.359375 102.207031 17.691406 104.101562 19.632812 C 106.855469 22.453125 108.496094 25.847656 109.207031 30.199219 C 109.371094 31.21875 109.375 31.457031 109.402344 42.085938 L 109.429688 52.929688 L 105.445312 52.929688 L 105.445312 42.960938 C 105.445312 36.769531 105.414062 32.628906 105.363281 32.035156 C 105.023438 28.101562 103.421875 24.632812 100.792969 22.140625 C 97.839844 19.347656 93.519531 17.875 89.28125 18.214844 C 81.996094 18.800781 76.582031 23.800781 75.304688 31.121094 C 74.945312 33.164062 75.007812 35.886719 75.464844 38.148438 C 75.792969 39.777344 76.625 41.921875 77.445312 43.257812 C 79.164062 46.046875 81.691406 48.085938 84.792969 49.179688 C 87.449219 50.117188 90.492188 50.355469 93.082031 49.824219 C 94.5625 49.523438 96.324219 48.84375 97.207031 48.238281 L 97.570312 47.988281 L 97.570312 51.941406 L 97.113281 52.242188 C 95.8125 53.101562 93.898438 53.730469 91.886719 53.960938 C 91.054688 54.054688 89.429688 54.050781 88.347656 53.953125 Z M 88.347656 53.953125 "/>
</g>
</svg>