<svg xmlns="http://www.w3.org/2000/svg" xmlns:xlink="http://www.w3.org/1999/xlink" width="px" height="44px" viewBox="0 0 55 44" version="1.1">
<g id="surface1">
<path style=" stroke:none;fill-rule:nonzero;fill:rgb(100%,100%,100%);fill-opacity:1;" d="M 8.25 19.25 C 11.285156 19.25 13.75 16.785156 13.75 13.75 C 13.75 10.714844 11.285156 8.25 8.25 8.25 C 5.214844 8.25 2.75 10.714844 2.75 13.75 C 2.75 16.785156 5.214844 19.25 8.25 19.25 Z M 46.75 19.25 C 49.785156 19.25 52.25 16.785156 52.25 13.75 C 52.25 10.714844 49.785156 8.25 46.75 8.25 C 43.714844 8.25 41.25 10.714844 41.25 13.75 C 41.25 16.785156 43.714844 19.25 46.75 19.25 Z M 49.5 22 L 44 22 C 42.488281 22 41.121094 22.609375 40.125 23.597656 C 43.585938 25.496094 46.046875 28.925781 46.578125 33 L 52.25 33 C 53.769531 33 55 31.769531 55 30.25 L 55 27.5 C 55 24.464844 52.535156 22 49.5 22 Z M 27.5 22 C 32.820312 22 37.125 17.695312 37.125 12.375 C 37.125 7.054688 32.820312 2.75 27.5 2.75 C 22.179688 2.75 17.875 7.054688 17.875 12.375 C 17.875 17.695312 22.179688 22 27.5 22 Z M 34.101562 24.75 L 33.386719 24.75 C 31.597656 25.609375 29.613281 26.125 27.5 26.125 C 25.386719 26.125 23.410156 25.609375 21.613281 24.75 L 20.898438 24.75 C 15.433594 24.75 11 29.183594 11 34.648438 L 11 37.125 C 11 39.402344 12.847656 41.25 15.125 41.25 L 39.875 41.25 C 42.152344 41.25 44 39.402344 44 37.125 L 44 34.648438 C 44 29.183594 39.566406 24.75 34.101562 24.75 Z M 14.875 23.597656 C 13.878906 22.609375 12.511719 22 11 22 L 5.5 22 C 2.464844 22 0 24.464844 0 27.5 L 0 30.25 C 0 31.769531 1.230469 33 2.75 33 L 8.414062 33 C 8.953125 28.925781 11.414062 25.496094 14.875 23.597656 Z M 14.875 23.597656 "/>
</g>
</svg>
