<svg xmlns="http://www.w3.org/2000/svg" xmlns:xlink="http://www.w3.org/1999/xlink" width="px" height="48px" viewBox="0 0 51 48" version="1.1">
<defs>
<filter id="alpha" filterUnits="objectBoundingBox" x="0%" y="0%" width="100%" height="100%">
  <feColorMatrix type="matrix" in="SourceGraphic" values="0 0 0 0 1 0 0 0 0 1 0 0 0 0 1 0 0 0 1 0"/>
</filter>
<mask id="mask0">
  <g filter="url(#alpha)">
<rect x="0" y="0" width="51" height="48" style="fill:rgb(0%,0%,0%);fill-opacity:0.101961;stroke:none;"/>
  </g>
</mask>
<clipPath id="clip1">
  <rect x="0" y="0" width="51" height="48"/>
</clipPath>
<g id="surface5" clip-path="url(#clip1)">
<path style=" stroke:none;fill-rule:nonzero;fill:rgb(0%,0%,0%);fill-opacity:1;" d="M 26.5625 9.335938 L 19.828125 9.335938 L 19.859375 9.484375 L 19.863281 9.496094 L 19.898438 9.636719 C 20.914062 13.507812 24.792969 15.886719 28.6875 15.03125 L 28.6875 11.46875 C 28.683594 10.292969 27.734375 9.339844 26.5625 9.335938 Z M 26.5625 9.335938 "/>
</g>
<mask id="mask1">
  <g filter="url(#alpha)">
<rect x="0" y="0" width="51" height="48" style="fill:rgb(0%,0%,0%);fill-opacity:0.2;stroke:none;"/>
  </g>
</mask>
<clipPath id="clip2">
  <rect x="0" y="0" width="51" height="48"/>
</clipPath>
<g id="surface8" clip-path="url(#clip2)">
<path style=" stroke:none;fill-rule:nonzero;fill:rgb(0%,0%,0%);fill-opacity:1;" d="M 24.96875 10.9375 L 20.371094 10.9375 C 21.605469 13.542969 24.21875 15.203125 27.09375 15.203125 L 27.09375 13.070312 C 27.089844 11.890625 26.140625 10.941406 24.96875 10.9375 Z M 24.96875 10.9375 "/>
</g>
<mask id="mask2">
  <g filter="url(#alpha)">
<rect x="0" y="0" width="51" height="48" style="fill:rgb(0%,0%,0%);fill-opacity:0.2;stroke:none;"/>
  </g>
</mask>
<clipPath id="clip3">
  <rect x="0" y="0" width="51" height="48"/>
</clipPath>
<g id="surface11" clip-path="url(#clip3)">
<path style=" stroke:none;fill-rule:nonzero;fill:rgb(0%,0%,0%);fill-opacity:1;" d="M 24.96875 10.9375 L 20.371094 10.9375 C 21.605469 13.542969 24.21875 15.203125 27.09375 15.203125 L 27.09375 13.070312 C 27.089844 11.890625 26.140625 10.941406 24.96875 10.9375 Z M 24.96875 10.9375 "/>
</g>
<mask id="mask3">
  <g filter="url(#alpha)">
<rect x="0" y="0" width="51" height="48" style="fill:rgb(0%,0%,0%);fill-opacity:0.101961;stroke:none;"/>
  </g>
</mask>
<clipPath id="clip4">
  <rect x="0" y="0" width="51" height="48"/>
</clipPath>
<g id="surface14" clip-path="url(#clip4)">
<path style=" stroke:none;fill-rule:nonzero;fill:rgb(0%,0%,0%);fill-opacity:1;" d="M 28.6875 17.335938 L 28.6875 37.609375 C 28.6875 38.601562 27.996094 39.460938 27.03125 39.671875 C 26.878906 39.714844 26.722656 39.738281 26.566406 39.734375 L 15.269531 39.734375 C 15.058594 39.214844 14.882812 38.679688 14.742188 38.136719 C 14.480469 37.089844 14.34375 36.015625 14.34375 34.9375 L 14.34375 19.734375 C 14.34375 19.097656 14.59375 18.488281 15.042969 18.039062 C 15.492188 17.585938 16.101562 17.335938 16.734375 17.335938 Z M 28.6875 17.335938 "/>
</g>
<mask id="mask4">
  <g filter="url(#alpha)">
<rect x="0" y="0" width="51" height="48" style="fill:rgb(0%,0%,0%);fill-opacity:0.2;stroke:none;"/>
  </g>
</mask>
<clipPath id="clip5">
  <rect x="0" y="0" width="51" height="48"/>
</clipPath>
<g id="surface17" clip-path="url(#clip5)">
<path style=" stroke:none;fill-rule:nonzero;fill:rgb(0%,0%,0%);fill-opacity:1;" d="M 27.09375 17.335938 L 27.09375 39.207031 C 27.097656 39.363281 27.074219 39.519531 27.03125 39.671875 C 26.820312 40.644531 25.964844 41.335938 24.972656 41.335938 L 16.066406 41.335938 C 15.757812 40.824219 15.492188 40.289062 15.269531 39.734375 C 15.058594 39.214844 14.882812 38.679688 14.742188 38.136719 C 14.480469 37.089844 14.34375 36.015625 14.34375 34.9375 L 14.34375 19.734375 C 14.34375 19.097656 14.59375 18.488281 15.042969 18.039062 C 15.492188 17.585938 16.101562 17.335938 16.734375 17.335938 Z M 27.09375 17.335938 "/>
</g>
<mask id="mask5">
  <g filter="url(#alpha)">
<rect x="0" y="0" width="51" height="48" style="fill:rgb(0%,0%,0%);fill-opacity:0.2;stroke:none;"/>
  </g>
</mask>
<clipPath id="clip6">
  <rect x="0" y="0" width="51" height="48"/>
</clipPath>
<g id="surface20" clip-path="url(#clip6)">
<path style=" stroke:none;fill-rule:nonzero;fill:rgb(0%,0%,0%);fill-opacity:1;" d="M 27.09375 17.335938 L 27.09375 36.007812 C 27.089844 37.179688 26.140625 38.128906 24.972656 38.136719 L 14.742188 38.136719 C 14.480469 37.089844 14.34375 36.015625 14.34375 34.9375 L 14.34375 19.734375 C 14.34375 19.097656 14.59375 18.488281 15.042969 18.039062 C 15.492188 17.585938 16.101562 17.335938 16.734375 17.335938 Z M 27.09375 17.335938 "/>
</g>
<mask id="mask6">
  <g filter="url(#alpha)">
<rect x="0" y="0" width="51" height="48" style="fill:rgb(0%,0%,0%);fill-opacity:0.2;stroke:none;"/>
  </g>
</mask>
<clipPath id="clip7">
  <rect x="0" y="0" width="51" height="48"/>
</clipPath>
<g id="surface23" clip-path="url(#clip7)">
<path style=" stroke:none;fill-rule:nonzero;fill:rgb(0%,0%,0%);fill-opacity:1;" d="M 16.734375 17.335938 C 16.101562 17.335938 15.492188 17.585938 15.042969 18.039062 C 14.59375 18.488281 14.34375 19.097656 14.34375 19.734375 L 14.34375 34.9375 C 14.34375 36.015625 14.480469 37.089844 14.742188 38.136719 L 23.378906 38.136719 C 24.546875 38.128906 25.496094 37.179688 25.5 36.007812 L 25.5 17.335938 Z M 16.734375 17.335938 "/>
</g>
</defs>
<g id="surface1">
<path style=" stroke:none;fill-rule:nonzero;fill:rgb(48.235294%,51.372549%,92.156863%);fill-opacity:1;" d="M 34.53125 7.734375 C 34.53125 11.859375 31.203125 15.203125 27.09375 15.203125 C 22.984375 15.203125 19.65625 11.859375 19.65625 7.734375 C 19.65625 3.613281 22.984375 0.269531 27.09375 0.269531 C 31.203125 0.269531 34.53125 3.613281 34.53125 7.734375 Z M 34.53125 7.734375 "/>
<use xlink:href="#surface5" mask="url(#mask0)"/>
<use xlink:href="#surface8" mask="url(#mask1)"/>
<path style=" stroke:none;fill-rule:nonzero;fill:rgb(31.372549%,34.901961%,78.823529%);fill-opacity:1;" d="M 49.40625 10.136719 C 49.40625 13.230469 46.910156 15.734375 43.828125 15.734375 C 40.746094 15.734375 38.25 13.230469 38.25 10.136719 C 38.25 7.042969 40.746094 4.535156 43.828125 4.535156 C 46.910156 4.535156 49.40625 7.042969 49.40625 10.136719 Z M 49.40625 10.136719 "/>
<path style=" stroke:none;fill-rule:nonzero;fill:rgb(31.372549%,34.901961%,78.823529%);fill-opacity:1;" d="M 48.609375 17.335938 L 36.082031 17.335938 C 35.515625 17.335938 35.0625 17.792969 35.0625 18.359375 L 35.0625 31.335938 C 34.988281 35.207031 37.625 38.597656 41.382812 39.46875 C 43.734375 39.964844 46.183594 39.371094 48.046875 37.851562 C 49.914062 36.332031 51 34.046875 51 31.636719 L 51 19.734375 C 51 18.410156 49.929688 17.335938 48.609375 17.335938 Z M 48.609375 17.335938 "/>
<path style=" stroke:none;fill-rule:nonzero;fill:rgb(48.235294%,51.372549%,92.156863%);fill-opacity:1;" d="M 39.84375 19.734375 L 39.84375 34.9375 C 39.847656 40.726562 35.972656 45.800781 30.402344 47.296875 C 24.828125 48.796875 18.949219 46.351562 16.066406 41.335938 C 15.757812 40.824219 15.492188 40.289062 15.269531 39.734375 C 15.058594 39.214844 14.882812 38.679688 14.742188 38.136719 C 14.480469 37.089844 14.34375 36.015625 14.34375 34.9375 L 14.34375 19.734375 C 14.34375 19.097656 14.59375 18.488281 15.042969 18.039062 C 15.492188 17.585938 16.101562 17.335938 16.734375 17.335938 L 37.453125 17.335938 C 38.085938 17.335938 38.695312 17.585938 39.144531 18.039062 C 39.59375 18.488281 39.84375 19.097656 39.84375 19.734375 Z M 39.84375 19.734375 "/>
<use xlink:href="#surface11" mask="url(#mask2)"/>
<use xlink:href="#surface14" mask="url(#mask3)"/>
<use xlink:href="#surface17" mask="url(#mask4)"/>
<use xlink:href="#surface20" mask="url(#mask5)"/>
<use xlink:href="#surface23" mask="url(#mask6)"/>
<path style=" stroke:none;fill-rule:nonzero;fill:rgb(29.411765%,32.54902%,73.72549%);fill-opacity:1;" d="M 2.125 10.9375 L 23.375 10.9375 C 24.550781 10.9375 25.5 11.890625 25.5 13.070312 L 25.5 34.402344 C 25.5 35.582031 24.550781 36.535156 23.375 36.535156 L 2.125 36.535156 C 0.949219 36.535156 0 35.582031 0 34.402344 L 0 13.070312 C 0 11.890625 0.949219 10.9375 2.125 10.9375 Z M 2.125 10.9375 "/>
<path style=" stroke:none;fill-rule:nonzero;fill:rgb(100%,100%,100%);fill-opacity:1;" d="M 19.09375 18.894531 L 14.328125 18.894531 L 14.328125 31.726562 L 11.199219 31.726562 L 11.199219 18.894531 L 6.40625 18.894531 L 6.40625 15.742188 L 19.09375 15.742188 Z M 19.09375 18.894531 "/>
</g>
</svg>
