<svg xmlns="http://www.w3.org/2000/svg" xmlns:xlink="http://www.w3.org/1999/xlink" width="px" height="48px" viewBox="0 0 73 48" version="1.1">
<g id="surface1">
<path style=" stroke:none;fill-rule:nonzero;fill:rgb(1.176471%,39.215686%,72.156863%);fill-opacity:1;" d="M 27.835938 13.585938 L 27.835938 13.582031 L 43.160156 22.78125 L 52.292969 18.929688 C 54.148438 18.125 56.148438 17.710938 58.171875 17.714844 C 58.507812 17.714844 58.84375 17.730469 59.171875 17.75 C 56.929688 8.988281 49.738281 2.371094 40.832031 0.882812 C 31.925781 -0.609375 22.980469 3.304688 18.015625 10.863281 L 18.25 10.855469 C 21.636719 10.851562 24.957031 11.796875 27.835938 13.585938 Z M 27.835938 13.585938 "/>
<path style=" stroke:none;fill-rule:nonzero;fill:rgb(0%,47.058824%,83.137255%);fill-opacity:1;" d="M 27.839844 13.582031 C 24.957031 11.796875 21.636719 10.851562 18.25 10.855469 L 18.015625 10.863281 C 11.261719 10.949219 5.109375 14.765625 2.019531 20.785156 C -1.066406 26.804688 -0.582031 34.042969 3.28125 39.59375 L 16.789062 33.898438 L 22.796875 31.363281 L 36.171875 25.722656 L 43.160156 22.78125 Z M 27.839844 13.582031 "/>
<path style=" stroke:none;fill-rule:nonzero;fill:rgb(7.843137%,56.470588%,87.45098%);fill-opacity:1;" d="M 59.171875 17.75 C 58.839844 17.726562 58.507812 17.714844 58.171875 17.714844 C 56.152344 17.710938 54.152344 18.125 52.296875 18.929688 L 43.160156 22.78125 L 45.808594 24.367188 L 54.488281 29.578125 L 58.277344 31.847656 L 71.226562 39.621094 C 73.617188 35.171875 73.589844 29.8125 71.152344 25.390625 C 68.714844 20.96875 64.203125 18.089844 59.171875 17.75 Z M 59.171875 17.75 "/>
<path style=" stroke:none;fill-rule:nonzero;fill:rgb(15.686275%,65.882353%,91.764706%);fill-opacity:1;" d="M 58.277344 31.847656 L 54.488281 29.578125 L 45.808594 24.367188 L 43.164062 22.78125 L 36.175781 25.722656 L 22.800781 31.363281 L 16.789062 33.898438 L 3.277344 39.59375 C 6.683594 44.507812 12.28125 47.433594 18.25 47.429688 L 58.171875 47.429688 C 63.625 47.429688 68.640625 44.429688 71.226562 39.621094 Z M 58.277344 31.847656 "/>
</g>
</svg>
