<?xml version="1.0" encoding="UTF-8"?>
<svg xmlns="http://www.w3.org/2000/svg" xmlns:xlink="http://www.w3.org/1999/xlink" width="200px" height="54px" viewBox="0 0 199 54" version="1.1">
<g id="surface1">
<path style=" stroke:none;fill-rule:nonzero;fill:rgb(84.705882%,12.156863%,14.901961%);fill-opacity:1;" d="M 27.363281 50.472656 C 24.371094 51 21.324219 51.15625 18.171875 51.578125 L 8.5625 23.339844 L 8.5625 52.789062 C 5.566406 53.105469 2.835938 53.527344 0 53.949219 L 0 0 L 7.984375 0 L 18.90625 30.609375 L 18.90625 0 L 27.363281 0 Z M 43.90625 19.757812 C 47.164062 19.757812 52.152344 19.597656 55.148438 19.597656 L 55.148438 28.027344 C 51.417969 28.027344 47.058594 28.027344 43.90625 28.1875 L 43.90625 40.726562 C 48.84375 40.410156 53.78125 39.988281 58.769531 39.828125 L 58.769531 47.941406 L 35.503906 49.789062 L 35.503906 0 L 58.769531 0 L 58.769531 8.429688 L 43.90625 8.429688 Z M 90.019531 8.429688 L 81.300781 8.429688 L 81.300781 47.207031 C 78.464844 47.207031 75.628906 47.207031 72.898438 47.3125 L 72.898438 8.429688 L 64.179688 8.429688 L 64.179688 0 L 90.019531 0 Z M 103.675781 19.175781 L 115.175781 19.175781 L 115.175781 27.605469 L 103.675781 27.605469 L 103.675781 46.730469 L 95.429688 46.730469 L 95.429688 0 L 118.90625 0 L 118.90625 8.429688 L 103.675781 8.429688 Z M 132.5625 39.355469 C 137.339844 39.460938 142.171875 39.832031 146.847656 40.09375 L 146.847656 48.417969 C 139.335938 47.941406 131.828125 47.46875 124.160156 47.3125 L 124.160156 0 L 132.5625 0 Z M 153.9375 48.996094 C 156.617188 49.15625 159.453125 49.3125 162.183594 49.628906 L 162.183594 0 L 153.9375 0 Z M 199 0 L 188.339844 25.65625 L 199 53.949219 C 195.847656 53.527344 192.699219 52.949219 189.546875 52.421875 L 183.507812 36.828125 L 177.363281 51.15625 C 174.316406 50.628906 171.375 50.472656 168.328125 50.050781 L 179.148438 25.339844 L 169.378906 0 L 178.410156 0 L 183.925781 14.171875 L 189.808594 0 Z M 199 0 "/>
</g>
</svg>
